<svg width="46" height="69" viewBox="0 0 46 69" fill="none" xmlns="http://www.w3.org/2000/svg">
<path d="M10.8807 18.6149L10.8737 18.6185C10.7642 17.9513 10.7113 17.27 10.7113 16.5957C10.7113 15.9921 10.7572 15.3849 10.8419 14.7918C10.7572 15.3814 10.7148 15.978 10.7148 16.5745C10.7148 17.2594 10.7713 17.9442 10.8807 18.6149ZM37.72 12.5573C37.7376 12.5432 37.7518 12.5291 37.7694 12.5114C37.7447 12.5361 37.72 12.5608 37.6917 12.5855L35.3795 14.5589V14.5553L37.72 12.5573ZM18.7775 4.9323H18.774L19.3212 1.97409C19.3282 1.93879 19.3353 1.90701 19.3459 1.87524C19.3423 1.89289 19.3353 1.91408 19.3318 1.93173L18.7775 4.9323ZM16.8713 24.2242L15.7628 23.3135L12.4869 24.4749C11.8868 23.6665 11.382 22.7981 10.9831 21.8767L13.6201 19.621L13.3871 18.2054C13.2988 17.6724 13.2529 17.1252 13.2529 16.5781C13.2529 16.0309 13.2988 15.4837 13.3871 14.9507L13.6165 13.5422L10.9796 11.2865C11.382 10.3686 11.8833 9.49671 12.4834 8.68832L15.7593 9.84972L16.8678 8.93895C17.7114 8.24706 18.654 7.70342 19.6671 7.32217L21.0121 6.81737L21.644 3.39318C22.641 3.28022 23.6475 3.28022 24.6445 3.39318L25.2764 6.82443L26.6143 7.32923C27.6204 7.71048 28.5559 8.25412 29.3925 8.94249L30.501 9.85678L33.7981 8.68479C34.3982 9.49318 34.903 10.3616 35.3019 11.2829L32.6367 13.5598L32.8661 14.9719C32.9544 15.4979 32.9967 16.038 32.9967 16.5781C32.9967 17.1146 32.9508 17.6583 32.8661 18.1843L32.6367 19.5963L35.3019 21.8732C34.8994 22.791 34.3982 23.663 33.7981 24.4714L30.501 23.2994L29.3925 24.2137C28.5559 24.902 27.6204 25.4457 26.6143 25.8269L25.28 26.3388L24.6481 29.77C23.6526 29.883 22.6394 29.883 21.6475 29.77L21.0156 26.3458L19.6706 25.841C18.654 25.4598 17.715 24.9161 16.8713 24.2242ZM23.1231 22.4486C24.1997 22.4486 25.2129 22.1733 26.0989 21.6896C28.037 20.6377 29.3537 18.5867 29.3537 16.2251C29.3537 12.7938 26.572 10.0121 23.1407 10.0121C20.7791 10.0121 18.7281 11.3288 17.6761 13.2668C17.1925 14.1494 16.9172 15.1625 16.9172 16.2427C16.9172 19.6704 19.6954 22.4486 23.1231 22.4486ZM33.9004 27.1966C34.0946 27.2637 34.2958 27.2778 34.4864 27.2389C34.2852 27.2813 34.0734 27.2742 33.8687 27.2036L30.9952 26.1799C30.9987 26.1764 31.0058 26.1729 31.0093 26.1693L33.9004 27.1966ZM8.56851 12.5573L10.8807 14.5341C10.8807 14.5412 10.8772 14.5518 10.8772 14.5589L8.56851 12.5855C8.31787 12.3702 8.17667 12.0596 8.17314 11.7383C8.18373 12.049 8.32493 12.349 8.56851 12.5573Z" fill="url(#paint0_linear_6_398)"/>
<path d="M8.18008 21.3296C8.16243 21.4955 8.18008 21.6649 8.2401 21.8273L8.27186 21.9191C8.91002 23.6974 9.86304 25.3464 11.0853 26.7871L11.1489 26.8612C11.297 27.0363 11.4948 27.1621 11.7162 27.222C11.9375 27.2819 12.1718 27.2731 12.388 27.1966L15.2579 26.1764C16.3108 27.0438 17.5 27.7309 18.7774 28.2097L19.3316 31.2103C19.3735 31.4361 19.483 31.6438 19.6457 31.8058C19.8083 31.9679 20.0165 32.0766 20.2424 32.1175L20.3377 32.1352C21.2603 32.302 22.196 32.3858 23.1335 32.3858H23.123C22.1804 32.3858 21.2379 32.3011 20.3201 32.1352L20.2248 32.1175C19.9988 32.0766 19.7907 31.9679 19.628 31.8058C19.4653 31.6438 19.3558 31.4361 19.314 31.2103L18.7598 28.2133C17.4819 27.7332 16.3028 27.0519 15.2438 26.1835L12.3774 27.2037C12.1612 27.2801 11.9269 27.289 11.7056 27.2291C11.4842 27.1692 11.2864 27.0433 11.1383 26.8683L11.0748 26.7942C9.84629 25.3433 8.90375 23.7089 8.2648 21.9332L8.23304 21.8415C8.17655 21.6755 8.1589 21.499 8.18008 21.3296Z" fill="black" fill-opacity="0.15"/>
<path d="M16.9276 16.2251C16.9276 15.1555 17.1994 14.1459 17.676 13.2669C18.7279 11.3289 20.7789 10.0121 23.1406 10.0121C26.5718 10.0121 29.3535 12.7939 29.3535 16.2251C29.3535 18.5867 28.0368 20.6377 26.0988 21.6897C25.2198 22.1662 24.2137 22.4381 23.1406 22.4381C19.7093 22.4381 16.9276 19.6564 16.9276 16.2251ZM27.0943 16.2251C27.0943 15.1696 26.6812 14.1777 25.9364 13.4293C25.188 12.6809 24.1961 12.2714 23.1406 12.2714C22.0851 12.2714 21.0931 12.6809 20.3447 13.4293C19.977 13.796 19.6854 14.2318 19.4866 14.7116C19.2879 15.1914 19.186 15.7058 19.1869 16.2251C19.1869 17.2806 19.5999 18.2726 20.3447 19.0209C20.7114 19.3887 21.1472 19.6803 21.627 19.879C22.1068 20.0777 22.6212 20.1796 23.1406 20.1788C24.1961 20.1788 25.188 19.7658 25.9364 19.0209C26.3041 18.6542 26.5958 18.2184 26.7945 17.7386C26.9932 17.2588 27.0951 16.7444 27.0943 16.2251Z" fill="#6B14D1"/>
<path d="M20.2425 32.1175C20.0166 32.0766 19.8084 31.9678 19.6458 31.8058C19.4831 31.6437 19.3736 31.436 19.3317 31.2103L18.7775 28.2097C17.5001 27.7309 16.3109 27.0438 15.258 26.1764L12.3881 27.1965C12.1719 27.273 11.9376 27.2819 11.7163 27.222C11.4949 27.1621 11.2971 27.0362 11.149 26.8612L11.0854 26.7871C9.85698 25.3362 8.91091 23.6982 8.27197 21.9191L8.2402 21.8273C8.18019 21.6649 8.16253 21.4955 8.18018 21.3295C8.21195 21.0507 8.3461 20.7859 8.56849 20.5918L10.8736 18.6184L10.8807 18.6149C10.7713 17.9442 10.7148 17.2593 10.7148 16.5745C10.7148 15.9779 10.7571 15.3778 10.8419 14.7918C10.8525 14.7141 10.8666 14.6365 10.8772 14.5588C10.8772 14.5518 10.8807 14.5412 10.8807 14.5341L8.56849 12.5573C8.32492 12.349 8.18371 12.0489 8.17312 11.7383C8.16959 11.5971 8.19077 11.4523 8.2402 11.3147L8.27197 11.2229C8.90852 9.44382 9.8617 7.79459 11.0854 6.35489L11.149 6.28076C11.2974 6.10621 11.4953 5.98073 11.7165 5.92086C11.9377 5.86099 12.1718 5.86955 12.3881 5.9454L15.258 6.9656C16.317 6.0972 17.4961 5.41236 18.774 4.93227H18.7775L19.3317 1.93169C19.3353 1.91404 19.3388 1.89286 19.3459 1.87521C19.3968 1.66178 19.5087 1.46775 19.6679 1.31672C19.8271 1.16568 20.0267 1.06415 20.2425 1.02446L20.3378 1.00681C22.177 0.674977 24.1115 0.674977 25.9507 1.00681L26.046 1.02446C26.2719 1.06539 26.48 1.17411 26.6427 1.33616C26.8054 1.4982 26.9149 1.70591 26.9567 1.93169L27.5145 4.94639C28.7822 5.42658 29.9627 6.11105 31.0093 6.97266L33.9004 5.9454C34.1166 5.86895 34.3509 5.86008 34.5722 5.91998C34.7935 5.97989 34.9914 6.10572 35.1395 6.28076L35.203 6.35489C36.4253 7.79561 37.3784 9.44456 38.0165 11.2229L38.0483 11.3147C38.1218 11.5198 38.1347 11.7419 38.0852 11.9541C38.0357 12.1664 37.9261 12.3599 37.7694 12.5114C37.7517 12.5255 37.7376 12.5431 37.72 12.5573L35.3795 14.5553V14.5588C35.489 15.2225 35.5419 15.8967 35.5419 16.571C35.5419 17.2488 35.489 17.9265 35.3795 18.5867L37.72 20.5847C37.8944 20.734 38.0192 20.9328 38.0778 21.1548C38.1365 21.3768 38.1262 21.6113 38.0483 21.8273L38.0165 21.9191C37.3776 23.6982 36.4315 25.3397 35.203 26.7871L35.1395 26.8612C34.9665 27.0624 34.7371 27.193 34.4864 27.2389C34.2958 27.2742 34.0946 27.2636 33.9004 27.1965L31.0093 26.1693C31.0057 26.1728 30.9987 26.1764 30.9952 26.1799C29.9467 27.0377 28.7783 27.719 27.5145 28.1956L26.9567 31.2103C26.9149 31.436 26.8054 31.6437 26.6427 31.8058C26.48 31.9678 26.2719 32.0766 26.046 32.1175L25.9507 32.1351C25.0293 32.3011 24.0868 32.3858 23.1442 32.3858H23.1336C22.1946 32.3858 21.2521 32.3011 20.3378 32.1351L20.2425 32.1175ZM21.6475 29.77C22.6445 29.8829 23.6511 29.8829 24.6481 29.77L25.2799 26.3387L26.6143 25.8269C27.6204 25.4456 28.5559 24.902 29.3925 24.2136L30.5009 23.2993L33.798 24.4713C34.3982 23.6629 34.8994 22.791 35.3019 21.8732L32.6366 19.5963L32.8661 18.1842C32.9508 17.6582 32.9967 17.1146 32.9967 16.578C32.9967 16.0379 32.9544 15.4978 32.8661 14.9718L32.6366 13.5598L35.3019 11.2829C34.903 10.3615 34.3982 9.49314 33.798 8.68475L30.5009 9.85674L29.3925 8.94245C28.5559 8.25408 27.6204 7.71045 26.6143 7.3292L25.2764 6.8244L24.6445 3.39315C23.6526 3.28018 22.6394 3.28018 21.6439 3.39315L21.0121 6.81734L19.6671 7.32214C18.654 7.70339 17.7114 8.24702 16.8677 8.93892L15.7593 9.84968L12.4834 8.68828C11.8832 9.49667 11.382 10.3686 10.9795 11.2864L13.6165 13.5422L13.3871 14.9507C13.2988 15.4837 13.2529 16.0309 13.2529 16.578C13.2529 17.1252 13.2988 17.6724 13.3871 18.2054L13.6201 19.621L10.9831 21.8767C11.3828 22.7977 11.8874 23.6695 12.4869 24.4748L15.7628 23.3134L16.8713 24.2242C17.715 24.9161 18.654 25.4597 19.6706 25.841L21.0156 26.3458L21.6475 29.77Z" fill="#6B14D1"/>
<path d="M35.3467 30.8566H10.7226C10.7226 30.8566 1.04883 39.5779 1.04883 56.3601V58.104C1.04883 61.1627 2.83932 63.9601 5.64999 65.1685C8.84406 66.5422 14.1831 67.7927 23.0346 67.7927C31.886 67.7927 37.2251 66.5422 40.4191 65.1685C43.2298 63.9601 45.0203 61.1627 45.0203 58.104V56.3601C45.0204 39.5779 35.3467 30.8566 35.3467 30.8566Z" fill="url(#paint1_linear_6_398)"/>
<path d="M35.3467 30.8566L35.5647 30.6148L35.4718 30.531H35.3467H10.7226H10.5975L10.5046 30.6148L10.7226 30.8566C10.5046 30.6148 10.5044 30.6149 10.5042 30.6151L10.5037 30.6156L10.5019 30.6172L10.4957 30.6228L10.4731 30.6437C10.4536 30.6618 10.4252 30.6885 10.3885 30.7237C10.3152 30.7941 10.2087 30.8985 10.0738 31.0368C9.80406 31.3134 9.42073 31.7256 8.96172 32.2722C8.04379 33.3651 6.82263 34.996 5.60226 37.1548C3.16096 41.4734 0.723236 47.9039 0.723236 56.3601V58.104C0.723236 61.2889 2.58771 64.2063 5.52139 65.4676C8.76886 66.8643 14.1553 68.1183 23.0346 68.1183C31.9138 68.1183 37.3003 66.8643 40.5477 65.4676C43.4814 64.2063 45.3459 61.2889 45.3459 58.104V56.3601C45.3459 47.9039 42.9082 41.4734 40.467 37.1548C39.2466 34.996 38.0254 33.3651 37.1075 32.2722C36.6485 31.7256 36.2652 31.3134 35.9954 31.0368C35.8606 30.8985 35.7541 30.7941 35.6807 30.7237C35.644 30.6885 35.6156 30.6618 35.5961 30.6437L35.5735 30.6228L35.5673 30.6172L35.5656 30.6156L35.565 30.6151C35.5648 30.6149 35.5647 30.6148 35.3467 30.8566Z" stroke="#5E0FB3" stroke-opacity="0.88" stroke-width="0.651184"/>
<path d="M16.8786 46.6863C16.6807 46.6863 16.4829 46.6203 16.3184 46.4849C15.9437 46.1753 15.8919 45.6213 16.2005 45.2467C16.2339 45.2063 19.5168 41.1917 19.5168 37.8921C19.5204 37.6801 19.6277 33.0191 22.4128 30.2349C22.7566 29.891 23.3124 29.891 23.6563 30.2349C24.0001 30.5787 24.0001 31.1345 23.6563 31.4784C21.3698 33.7657 21.2756 37.8657 21.2756 37.907C21.2756 41.8276 17.7078 46.1843 17.5565 46.368C17.3825 46.5772 17.131 46.6863 16.8786 46.6863Z" fill="white"/>
<path d="M28.3104 43.1686C28.2331 43.1686 28.1539 43.158 28.0757 43.1361C27.942 43.0992 24.7936 42.1757 24.7936 37.8921C24.7927 37.8666 24.688 33.7544 22.4129 31.4784C22.0691 31.1345 22.0691 30.5787 22.4129 30.2349C22.7568 29.891 23.3126 29.891 23.6564 30.2349C26.4415 33.0191 26.5488 37.6801 26.5524 37.8772C26.5524 40.7996 28.4748 41.4195 28.5566 41.445C29.0174 41.5857 29.2847 42.0712 29.1502 42.5337C29.0387 42.917 28.6913 43.1686 28.3104 43.1686Z" fill="white"/>
<path d="M27.4318 57.2395C27.4318 59.6676 25.4628 61.6366 23.0347 61.6366C20.6066 61.6366 18.6376 59.6675 18.6376 57.2395C18.6376 54.8113 20.6066 52.8423 23.0347 52.8423C25.4628 52.8423 27.4318 54.8113 27.4318 57.2395Z" fill="white"/>
<path d="M29.1907 49.3247C26.927 49.3247 25.0846 51.0414 24.8419 53.2399C26.3669 53.9303 27.4318 55.457 27.4318 57.2396C27.4318 57.4049 27.4011 57.5615 27.3834 57.7215C27.9357 57.9721 28.5443 58.119 29.1907 58.119C31.6188 58.119 33.5878 56.1499 33.5878 53.7218C33.5878 51.2937 31.6187 49.3247 29.1907 49.3247Z" fill="white" fill-opacity="0.6"/>
<path d="M18.6373 57.2396C18.6373 55.3646 19.8166 53.7746 21.469 53.1424C20.6908 51.9094 19.3241 51.0836 17.7578 51.0836C15.3297 51.0836 13.3607 53.0527 13.3607 55.4807C13.3607 57.9089 15.3298 59.8779 17.7578 59.8779C18.311 59.8779 18.8352 59.7644 19.3233 59.578C18.895 58.8991 18.6373 58.1014 18.6373 57.2396Z" fill="white" fill-opacity="0.6"/>
<path d="M39.7195 20.597C39.5031 18.0932 36.5474 16.8093 34.5352 18.3158C33.2688 19.2647 31.3807 20.3032 29.191 20.3032C27.5069 20.3032 26.2255 19.8205 25.2792 19.2119C23.9073 18.329 22.1625 18.329 20.7907 19.2119C19.8444 19.8205 18.563 20.3032 16.879 20.3032C14.6883 20.3032 12.801 19.2647 11.5338 18.3158C9.52255 16.8093 6.5659 18.0932 6.35041 20.597C6.34689 20.6365 6.34336 20.6761 6.34072 20.7166C6.32045 21.0174 6.42071 21.3164 6.59576 21.5617L10.723 27.3387H23.035H35.347L39.4733 21.5617C39.6491 21.3164 39.7485 21.0174 39.7283 20.7166C39.7256 20.6761 39.7229 20.6365 39.7195 20.597Z" fill="url(#paint2_linear_6_398)"/>
<path d="M39.3951 20.6251L39.3951 20.625C39.2014 18.383 36.544 17.2187 34.7305 18.5763C33.4381 19.5446 31.4814 20.6288 29.191 20.6288C27.4406 20.6288 26.0986 20.126 25.1031 19.4857L25.1031 19.4857C23.8384 18.6718 22.2314 18.6718 20.9669 19.4857L20.9668 19.4857C19.9713 20.126 18.6293 20.6288 16.879 20.6288C14.5876 20.6288 12.6317 19.5446 11.3387 18.5764L11.3386 18.5764C9.52595 17.2186 6.86776 18.383 6.6748 20.6249L6.67472 20.6259C6.67114 20.666 6.66797 20.7017 6.66562 20.7378L6.66557 20.7385C6.65112 20.953 6.72256 21.1788 6.86069 21.3724L39.3951 20.6251ZM39.3951 20.6251C39.3981 20.6597 39.4005 20.6948 39.4032 20.7344L39.4035 20.7384C39.4179 20.9536 39.3469 21.1792 39.2086 21.3721L39.2083 21.3725L35.1794 27.0131H23.035H10.8905L6.86081 21.3726L39.3951 20.6251Z" stroke="#5E0FB2" stroke-opacity="0.88" stroke-width="0.651184"/>
<path d="M36.2261 30.8566H9.84322C8.87582 30.8566 8.08435 30.0651 8.08435 29.0977C8.08435 28.1303 8.87582 27.3389 9.84322 27.3389H36.2262C37.1936 27.3389 37.9851 28.1303 37.9851 29.0977C37.9851 30.0651 37.1935 30.8566 36.2261 30.8566Z" fill="white"/>
<defs>
<linearGradient id="paint0_linear_6_398" x1="37.7694" y1="15.865" x2="8.17314" y2="15.865" gradientUnits="userSpaceOnUse">
<stop stop-color="#E3E4FB"/>
<stop offset="1" stop-color="#E3E4FB"/>
</linearGradient>
<linearGradient id="paint1_linear_6_398" x1="1.04883" y1="49.3247" x2="45.0203" y2="49.3247" gradientUnits="userSpaceOnUse">
<stop stop-color="#CC208E"/>
<stop offset="1" stop-color="#6713D2"/>
</linearGradient>
<linearGradient id="paint2_linear_6_398" x1="6.33813" y1="22.5047" x2="39.7309" y2="22.5047" gradientUnits="userSpaceOnUse">
<stop stop-color="#CC208E"/>
<stop offset="1" stop-color="#6713D2"/>
</linearGradient>
</defs>
</svg>
